<?xml version="1.0" standalone="no"?>
<!DOCTYPE svg PUBLIC "-//W3C//DTD SVG 20010904//EN"
 "http://www.w3.org/TR/2001/REC-SVG-20010904/DTD/svg10.dtd">
<svg version="1.0" xmlns="http://www.w3.org/2000/svg"
 width="450.000000pt" height="450.000000pt" viewBox="0 0 450.000000 450.000000"
 preserveAspectRatio="xMidYMid meet">

<g transform="translate(0.000000,450.000000) scale(0.100000,-0.100000)"
fill="#000000" stroke="none">
<path d="M570 4438 c-171 -142 -363 -356 -499 -557 l-71 -105 1 -480 0 -481
35 128 c172 642 605 1180 1204 1496 l115 61 -355 0 -355 0 -75 -62z"/>
<path d="M3485 4434 c372 -187 700 -469 941 -808 l69 -97 3 318 3 318 -108
105 c-60 58 -143 133 -186 168 l-78 62 -387 0 -387 -1 130 -65z"/>
<path d="M2056 4354 c-974 -132 -1713 -917 -1785 -1896 -52 -696 277 -1366
859 -1748 247 -162 540 -268 828 -300 158 -18 425 -8 566 20 708 140 1251 682
1403 1399 24 113 27 148 27 336 1 180 -2 226 -22 323 -32 161 -73 278 -147
427 -238 477 -680 806 -1202 895 -141 25 -386 27 -518 5 -340 -55 -639 -214
-880 -467 -383 -402 -517 -984 -349 -1503 138 -422 487 -772 910 -910 165 -55
258 -69 444 -69 178 -1 273 13 417 60 336 110 623 357 778 669 89 179 130 335
142 530 23 402 -166 812 -489 1055 -355 268 -831 326 -1224 150 -242 -109
-474 -345 -580 -590 -79 -183 -112 -419 -85 -611 33 -231 155 -467 322 -625
122 -114 241 -185 399 -238 500 -166 1022 52 1241 518 74 158 105 340 88 509
-12 121 -33 196 -85 306 -148 313 -438 509 -784 528 -249 13 -465 -66 -642
-235 -187 -179 -277 -403 -265 -661 13 -296 176 -545 442 -676 110 -55 182
-74 302 -82 233 -15 434 65 596 237 265 282 264 725 -3 990 -118 117 -240 178
-406 201 -299 41 -602 -151 -695 -441 -29 -90 -36 -244 -15 -334 27 -112 72
-191 161 -282 122 -124 252 -178 425 -177 307 1 550 246 550 553 -1 258 -186
473 -442 512 -259 39 -504 -140 -548 -401 -58 -345 304 -628 616 -482 278 130
324 509 84 686 -166 122 -388 93 -514 -65 -76 -95 -94 -245 -45 -351 36 -76
89 -133 157 -166 50 -24 69 -28 147 -28 74 0 97 4 133 23 95 50 150 124 172
230 32 146 -73 301 -226 332 -67 14 -111 8 -181 -26 -185 -89 -191 -362 -9
-456 121 -62 266 -14 322 107 32 67 31 127 -2 194 -65 130 -227 158 -328 57
-102 -102 -74 -256 56 -311 52 -21 98 -19 149 8 149 79 101 307 -65 307 -68 0
-111 -27 -138 -86 -27 -62 -18 -106 32 -156 34 -34 43 -38 90 -38 48 0 56 4
92 40 39 38 40 42 36 90 -12 119 -145 157 -211 60 -28 -41 -22 -87 17 -126 63
-63 151 -35 163 53 5 35 2 45 -20 67 -14 14 -32 26 -39 26 -8 0 -6 -5 5 -11 9
-6 15 -15 11 -20 -3 -5 0 -8 7 -7 20 5 34 -47 21 -76 -31 -69 -120 -72 -156
-5 -23 43 -16 80 21 115 48 45 125 27 158 -37 50 -96 -74 -199 -165 -137 -46
31 -62 63 -57 116 8 80 87 134 164 113 61 -17 95 -60 101 -126 4 -47 1 -61
-21 -94 -86 -129 -287 -61 -287 97 0 125 128 206 247 157 80 -33 117 -97 111
-187 -11 -157 -177 -237 -314 -152 -70 43 -108 117 -101 197 6 73 45 139 106
182 39 27 50 30 125 30 74 0 87 -3 131 -30 126 -78 160 -241 76 -366 -118
-175 -391 -149 -486 46 -21 42 -27 69 -27 124 0 129 68 233 189 288 73 34 192
31 268 -7 205 -100 252 -372 94 -545 -212 -232 -591 -109 -650 210 -31 170 72
360 237 437 116 54 260 51 379 -9 186 -93 282 -304 234 -513 -25 -110 -104
-221 -207 -292 -135 -93 -334 -102 -502 -21 -72 35 -188 151 -223 223 -149
310 6 662 343 776 85 29 243 26 339 -5 202 -66 363 -244 406 -447 69 -324
-132 -651 -461 -750 -95 -29 -276 -25 -379 9 -179 59 -328 185 -408 346 -62
123 -81 214 -75 355 9 196 78 348 222 491 94 92 161 135 283 179 84 29 95 31
238 31 129 0 160 -3 225 -23 303 -96 520 -344 569 -652 30 -183 -14 -396 -116
-568 -116 -196 -351 -359 -578 -401 -83 -16 -261 -14 -342 4 -341 72 -602 310
-708 645 -33 105 -45 304 -25 427 42 265 201 512 426 663 161 109 314 159 511
167 210 9 362 -24 545 -119 505 -263 712 -869 480 -1407 -129 -297 -396 -541
-702 -639 -232 -75 -500 -73 -736 4 -440 143 -764 517 -845 974 -21 117 -16
345 10 467 57 271 175 489 370 683 193 192 407 307 682 366 64 14 126 18 264
18 160 0 193 -3 300 -28 366 -84 678 -297 881 -601 122 -183 188 -351 225
-567 27 -155 22 -387 -10 -540 -88 -411 -327 -760 -676 -988 -652 -424 -1553
-286 -2083 320 -445 509 -536 1229 -236 1860 175 366 487 676 854 848 330 155
723 204 1090 137 601 -110 1100 -483 1373 -1025 153 -303 216 -594 204 -935
-7 -178 -22 -288 -66 -456 -130 -498 -462 -947 -902 -1220 -261 -162 -552
-263 -863 -300 -143 -17 -451 -7 -601 20 -461 81 -874 297 -1200 626 -262 265
-459 602 -556 948 -17 62 -32 117 -34 122 -2 6 -4 -191 -4 -436 l-1 -445 51
-75 c83 -121 155 -207 283 -337 208 -213 426 -372 683 -501 l83 -41 1036 0
1036 0 87 45 c218 112 414 260 602 452 299 305 502 665 605 1073 l34 135 0
440 0 440 -29 115 c-83 326 -237 626 -459 890 -229 273 -544 498 -892 635
-126 50 -366 109 -518 129 -149 19 -407 19 -546 0z"/>
<path d="M2190 2300 c-12 -12 -20 -33 -20 -55 0 -36 28 -75 53 -75 6 0 3 6 -8
12 -28 16 -35 28 -35 65 0 22 8 38 26 52 15 12 22 21 15 21 -6 0 -20 -9 -31
-20z"/>
<path d="M2281 2190 c-13 -11 -19 -20 -14 -20 6 0 18 9 28 20 23 25 17 25 -14
0z"/>
<path d="M4428 607 c-37 -56 -98 -140 -135 -187 -70 -88 -295 -320 -372 -383
l-45 -37 312 0 312 0 0 355 c0 195 -1 355 -2 354 -2 0 -33 -46 -70 -102z"/>
<path d="M0 151 l0 -151 165 0 c91 0 165 2 165 4 0 2 -32 29 -70 61 -39 31
-113 97 -165 147 l-95 90 0 -151z"/>
</g>
</svg>
